<svg width="41" height="41" viewBox="0 0 41 41" fill="none" xmlns="http://www.w3.org/2000/svg">
<rect width="41" height="41" rx="8" fill="#E9E9E9"/>
<path d="M25 15C25 16.0609 24.5786 17.0783 23.8284 17.8284C23.0783 18.5786 22.0609 19 21 19C19.9391 19 18.9217 18.5786 18.1716 17.8284C17.4214 17.0783 17 16.0609 17 15C17 13.9391 17.4214 12.9217 18.1716 12.1716C18.9217 11.4214 19.9391 11 21 11C22.0609 11 23.0783 11.4214 23.8284 12.1716C24.5786 12.9217 25 13.9391 25 15V15ZM21 22C19.1435 22 17.363 22.7375 16.0503 24.0503C14.7375 25.363 14 27.1435 14 29H28C28 27.1435 27.2625 25.363 25.9497 24.0503C24.637 22.7375 22.8565 22 21 22V22Z" stroke="#6E6E6E" stroke-width="1.5" stroke-linecap="round" stroke-linejoin="round"/>
</svg>
