<svg width="36" height="24" viewBox="0 0 36 24" fill="none" xmlns="http://www.w3.org/2000/svg">
<g clip-path="url(#clip0_877_7049)">
<path d="M32 0.5H4C3.07174 0.5 2.1815 0.868749 1.52513 1.52513C0.868749 2.1815 0.5 3.07174 0.5 4V20C0.5 20.9283 0.868749 21.8185 1.52513 22.4749C2.1815 23.1313 3.07174 23.5 4 23.5H32C32.9283 23.5 33.8185 23.1313 34.4749 22.4749C35.1312 21.8185 35.5 20.9283 35.5 20V4C35.5 3.07174 35.1312 2.1815 34.4749 1.52513C33.8185 0.868749 32.9283 0.5 32 0.5Z" fill="white"/>
<path fillRule="evenodd" clipRule="evenodd" d="M4 1C3.20435 1 2.44129 1.31607 1.87868 1.87868C1.31607 2.44129 1 3.20435 1 4V20C1 20.7956 1.31607 21.5587 1.87868 22.1213C2.44129 22.6839 3.20435 23 4 23H32C32.7957 23 33.5587 22.6839 34.1213 22.1213C34.6839 21.5587 35 20.7956 35 20V4C35 3.20435 34.6839 2.44129 34.1213 1.87868C33.5587 1.31607 32.7957 1 32 1H4ZM0 4C0 2.93913 0.421427 1.92172 1.17157 1.17157C1.92172 0.421427 2.93913 0 4 0L32 0C33.0609 0 34.0783 0.421427 34.8284 1.17157C35.5786 1.92172 36 2.93913 36 4V20C36 21.0609 35.5786 22.0783 34.8284 22.8284C34.0783 23.5786 33.0609 24 32 24H4C2.93913 24 1.92172 23.5786 1.17157 22.8284C0.421427 22.0783 0 21.0609 0 20V4Z" fill="#DFE0E2"/>
<path d="M15.9482 23.0625L34.9482 17.3125V20.0625C34.9482 20.8581 34.6322 21.6212 34.0696 22.1838C33.507 22.7464 32.7439 23.0625 31.9482 23.0625H15.9482Z" fill="#FD6020"/>
<path fillRule="evenodd" clipRule="evenodd" d="M31.3413 9.17293C32.3873 9.17293 32.9613 9.65693 32.9613 10.5699C33.0143 11.2689 32.5443 11.8599 31.9163 11.9669L33.3283 13.9549H32.2303L31.0283 12.0209H30.9233V13.9549H30.0353V9.17293H31.3413ZM30.9233 11.3759H31.1853C31.7603 11.3759 32.0213 11.1079 32.0213 10.6239C32.0213 10.1939 31.7593 9.92593 31.1853 9.92593H30.9233V11.3759ZM26.9513 13.9549H29.4603V13.1489H27.8403V11.8589H29.4083V11.0539H27.8403V9.97893H29.4603V9.17293H26.9503V13.9549H26.9513ZM24.3383 12.3969L23.1363 9.17293H22.1963L24.1293 14.0629H24.5993L26.5333 9.17293H25.5933L24.3383 12.3969ZM13.7283 11.5909C13.7283 12.9339 14.7743 14.0629 16.0803 14.0629C16.4983 14.0629 16.8643 13.9549 17.2303 13.7929V12.7199C16.9693 13.0429 16.6033 13.2579 16.1853 13.2579C15.3483 13.2579 14.6693 12.6129 14.6693 11.7529V11.6459C14.6485 11.2325 14.7896 10.8272 15.0628 10.5161C15.3359 10.2051 15.7196 10.0127 16.1323 9.97993C16.5503 9.97993 16.9693 10.1949 17.2303 10.5179V9.44193C16.9163 9.22693 16.4983 9.17293 16.1323 9.17293C14.7733 9.06593 13.7283 10.1939 13.7283 11.5909ZM12.1083 11.0009C11.5853 10.7849 11.4283 10.6779 11.4283 10.4089C11.4813 10.0869 11.7423 9.81893 12.0563 9.87193C12.3173 9.87193 12.5783 10.0329 12.7883 10.2479L13.2583 9.60293C12.8923 9.28093 12.4223 9.06593 11.9513 9.06593C11.2193 9.01193 10.5923 9.60293 10.5413 10.3559V10.4089C10.5413 11.0539 10.8013 11.4289 11.6383 11.6989C11.8473 11.7519 12.0563 11.8589 12.2653 11.9669C12.3462 12.0189 12.4126 12.0906 12.4582 12.1752C12.5039 12.2599 12.5273 12.3548 12.5263 12.4509C12.5263 12.8269 12.2133 13.1489 11.8993 13.1489H11.8473C11.4293 13.1489 11.0633 12.8809 10.9063 12.5039L10.3313 13.0949C10.6453 13.6859 11.2713 14.0089 11.8993 14.0089C12.7353 14.0619 13.4153 13.4179 13.4673 12.5589V12.3969C13.4153 11.7519 13.1533 11.4299 12.1083 10.9999V11.0009ZM9.07727 13.9549H9.96527V9.17293H9.07727V13.9549ZM4.94727 9.17293H6.51627C7.77027 9.22693 8.76327 10.3019 8.71127 11.5909C8.71127 12.2899 8.39727 12.9339 7.87527 13.4179C7.40527 13.7939 6.82927 14.0079 6.25527 13.9549H4.94727V9.17293ZM6.09727 13.1489C6.51627 13.2029 6.98727 13.0419 7.30027 12.7729C7.61327 12.4509 7.77027 12.0209 7.77027 11.5369C7.77027 11.1069 7.61327 10.6769 7.30027 10.3549C6.98627 10.0869 6.51627 9.92493 6.09827 9.97893H5.83627V13.1489H6.09827H6.09727Z" fill="black"/>
<path fillRule="evenodd" clipRule="evenodd" d="M19.8952 9.0625C18.5892 9.0625 17.4912 10.1365 17.4912 11.5325C17.4912 12.8765 18.5372 14.0045 19.8952 14.0585C21.2552 14.1125 22.3002 12.9845 22.3522 11.5875C22.3002 10.1905 21.2542 9.0625 19.8952 9.0625Z" fill="#FD6020"/>
</g>
<defs>
<clipPath id="clip0_877_7049">
<rect width="36" height="24" fill="white"/>
</clipPath>
</defs>
</svg>
