<svg width="56" height="56" viewBox="0 0 56 56" fill="none" xmlns="http://www.w3.org/2000/svg">
<path d="M0 46.0468C0.291667 44.8627 0.624161 43.7018 1.27895 42.6504C4.81979 36.9701 13.16 37.1802 16.3435 43.0645C16.6673 43.6654 16.975 43.8535 17.5817 43.6304C17.7826 43.5709 17.9866 43.5223 18.1927 43.4845C17.8821 42.5206 17.6021 41.5697 17.2564 40.6437C17.1719 40.4177 16.8758 40.2645 16.6731 40.0924L5.89604 31.2754C4.91166 30.4704 4.69437 29.2526 5.45854 28.4039C5.75021 28.0758 6.22417 27.7374 6.63542 27.7097C8.08627 27.6103 9.54158 27.5933 10.9944 27.6587C11.5777 27.6864 12.1975 27.9504 12.7356 28.2216C14.6737 29.2206 16.5827 30.2764 18.5106 31.2972C18.7303 31.4173 18.975 31.4847 19.2252 31.4941C21.4987 31.5087 23.7737 31.4941 26.0473 31.5087C26.1782 31.523 26.3103 31.4952 26.4243 31.4294C26.5384 31.3636 26.6285 31.2631 26.6817 31.1426C28.3033 28.226 31.516 26.7866 34.7929 27.4968C36.5429 27.8804 38.3148 28.242 40.0531 28.697C40.8071 28.8939 41.5114 29.2993 42.2756 29.6274C42.364 28.8554 42.1438 28.0797 41.6631 27.4691C41.2475 26.9179 40.7808 26.4031 40.336 25.8737C39.6506 25.0585 39.6492 24.0464 40.336 23.3654C41.0229 22.6843 41.981 22.6945 42.7977 23.3654C44.1335 24.4635 45.4577 25.5747 46.8052 26.6583C47.5742 27.2759 48.2026 28.0505 48.6485 28.9304C49.2319 30.062 49.8152 31.1908 50.4117 32.3195C51.0562 33.5504 50.9425 34.6981 50.0573 35.7714C49.8167 36.0631 49.5892 36.3679 49.3952 36.6172C50.2264 36.9964 51.0635 37.3027 51.8248 37.7431C53.4129 38.6618 54.4367 40.0764 55.1337 41.7564C55.3496 42.2712 55.1133 42.5483 54.6233 42.7116C55.7229 44.8991 55.946 47.1668 55.2067 49.4987C54.6008 51.4497 53.3148 53.1186 51.5827 54.2018C48.0477 56.4783 42.8896 56.0087 39.7994 51.9749C38.9244 52.882 37.8058 53.0614 36.6056 53.0352C35.1881 53.0031 33.7662 53.0614 32.3487 53.0104C31.7654 52.9885 31.1821 52.7814 30.5987 52.6647C30.3562 52.6006 30.1082 52.5595 29.8579 52.5422C27.7652 52.532 25.6725 52.5262 23.5871 52.5422C22.6946 52.5495 21.9012 52.3352 21.2275 51.7256C21.1007 51.6237 20.9502 51.5554 20.79 51.5272C19.5621 51.2749 18.3342 51.0227 17.1004 50.7981C17.006 50.7932 16.9117 50.8113 16.8259 50.851C16.74 50.8906 16.6651 50.9505 16.6075 51.0256C15.1769 53.7964 12.9442 55.437 9.86562 55.9212C9.81531 55.9381 9.76841 55.9637 9.72708 55.997H7.65187C7.55739 55.9552 7.45989 55.9206 7.3602 55.8935C4.7352 55.4399 2.72708 54.0852 1.29208 51.8481C0.622706 50.8039 0.301873 49.6358 0.0160395 48.4501L0 46.0468ZM26.4469 43.3124C25.445 43.3124 24.4665 43.3037 23.4879 43.3227C23.3567 43.3227 23.1262 43.4685 23.1189 43.5574C23.1095 43.7449 23.1727 43.9288 23.2954 44.0708C25.639 46.4362 27.9781 48.8089 30.3654 51.1306C30.7402 51.4966 31.3337 51.8131 31.8412 51.8349C33.7283 51.9137 35.6212 51.8874 37.5112 51.8481C37.9807 51.8303 38.4312 51.6582 38.793 51.3585C39.1547 51.0587 39.4075 50.648 39.5121 50.1899C39.6037 49.6899 39.6399 49.1813 39.62 48.6733C39.6092 47.5725 39.9866 46.5031 40.686 45.6531C43.0194 42.7364 45.3265 39.8095 47.6437 36.8856C47.7517 36.7485 47.8537 36.6085 48.0039 36.4072C47.7123 36.3824 47.5154 36.3693 47.32 36.3489C46.2612 36.2454 45.7362 35.5527 45.9214 34.5129C46.0206 33.9572 46.1023 33.3987 46.2131 32.8445C46.3837 31.9695 46.9131 31.532 47.8056 31.5043C48.0667 31.497 48.3292 31.5043 48.6806 31.5043L47.6233 29.4758C46.2875 30.3639 44.8714 29.8447 43.4612 29.9454C43.4612 30.0387 43.4612 30.1991 43.4612 30.3595C43.4306 33.002 42.4404 35.2026 40.4498 36.9483C38.29 38.8441 36.136 40.7502 33.966 42.6358C33.7838 42.7781 33.6316 42.9551 33.5182 43.1566C33.4049 43.3581 33.3325 43.5801 33.3054 43.8097C33.0531 45.6939 31.1821 46.9874 29.3183 46.6229C27.7244 46.3195 26.7998 45.271 26.4469 43.3124ZM16.2662 47.2937C16.2663 45.286 15.4701 43.3602 14.0524 41.9387C12.6346 40.5171 10.711 39.7158 8.70333 39.7104C6.69353 39.715 4.76736 40.5154 3.34621 41.9366C1.92506 43.3577 1.12462 45.2839 1.12 47.2937C1.12497 49.3021 1.9234 51.2271 3.34135 52.6494C4.7593 54.0717 6.68186 54.8761 8.6902 54.8872C10.6996 54.8811 12.6248 54.0793 14.0446 52.6573C15.4644 51.2354 16.2632 49.309 16.2662 47.2995V47.2937ZM43.9585 43.4058C42.9931 44.6629 42.086 45.7785 41.2635 46.9524C40.9996 47.3302 40.9004 47.8552 40.826 48.3291C40.7336 49.0353 40.681 49.7462 40.6685 50.4583C40.6583 50.7412 40.6685 51.0781 40.8012 51.3041C41.6057 52.5941 42.7836 53.6087 44.1786 54.213C45.5735 54.8174 47.1194 54.9828 48.6106 54.6874C53.8285 53.6972 56.4112 47.4235 53.3837 43.0543C53.3041 42.9564 53.2054 42.8758 53.0936 42.8174C52.9817 42.7589 52.8591 42.7239 52.7333 42.7145C51.1875 42.6839 49.6417 42.697 48.0958 42.6999C47.95 42.6999 47.8144 42.7204 47.6335 42.7335C47.6802 42.942 47.7108 43.1156 47.7575 43.2862C48.1177 44.6206 48.4867 45.952 48.8396 47.2893C49.1312 48.386 48.5742 49.3062 47.4848 49.576C46.4917 49.8224 45.589 49.3106 45.2973 48.2927C44.8467 46.7133 44.4281 45.1324 43.9585 43.4116V43.4058ZM29.2892 29.8301C27.9548 30.8364 27.2475 32.2145 26.9033 33.7676C26.6875 34.7637 27.6077 35.7335 28.6942 35.7379C32.2598 35.7539 35.8254 35.7379 39.391 35.7379C39.8942 35.7379 40.3287 35.592 40.5956 35.1414C41.0331 34.4122 41.5115 33.6947 41.8469 32.9189C42.2975 31.8747 42.1167 31.2462 41.2183 30.5374C40.8137 30.2339 40.3578 30.0057 39.8723 29.8637C39.1431 29.6391 38.3833 29.5283 37.6469 29.3343C37.2692 29.2351 37.0446 29.3037 36.7719 29.626C35.5614 31.0843 34.001 31.6954 32.1169 31.3891C31.0042 31.2185 30.0912 30.6512 29.2892 29.836V29.8301ZM21.8735 36.0849C21.9567 36.311 22.0121 36.4816 22.0806 36.6449C22.6299 37.9516 23.1821 39.2578 23.7373 40.5635C23.9502 41.0652 24.0435 41.7637 24.4256 42.0072C24.831 42.2668 25.5135 42.0714 26.0721 42.1137C26.4658 42.1443 26.67 42.0364 26.845 41.6441C27.4167 40.3637 28.4594 39.6841 29.8448 39.6389C31.1879 39.5937 32.219 40.2062 32.9204 41.3612C33.0006 41.4924 33.0662 41.6281 33.1669 41.7987L38.7173 36.9366H37.9546C34.9723 36.9366 31.99 36.9599 29.0092 36.9177C28.3967 36.9089 27.7871 36.6522 27.1775 36.5035C27.0565 36.4743 26.9442 36.3795 26.8246 36.3722C25.1956 36.2774 23.5652 36.187 21.8735 36.0908V36.0849ZM8.86374 28.7597V28.7889C8.26437 28.7889 7.66354 28.7889 7.06417 28.7889C6.64854 28.7889 6.31604 28.942 6.17458 29.3722C6.03312 29.8024 6.23292 30.0737 6.53479 30.3202C8.53562 31.952 10.5277 33.5941 12.5402 35.2129C13.4152 35.9158 14.471 35.7962 15.2192 34.962C15.365 34.8001 15.4919 34.6208 15.6465 34.4662C15.855 34.2577 15.8652 34.0491 15.8477 33.7472C15.8215 33.2835 15.871 32.7526 16.0825 32.3545C16.2837 31.9783 16.2517 31.761 15.9906 31.5145C15.8226 31.3468 15.6351 31.2 15.4321 31.077C14.3617 30.4616 13.3102 29.8039 12.1975 29.2731C11.5952 28.9814 10.8937 28.8822 10.2244 28.7714C9.7825 28.7058 9.31729 28.7656 8.86374 28.7656V28.7597ZM18.9933 42.0481C19.0021 42.1364 19.0167 42.2241 19.0371 42.3106C19.8537 44.8743 20.6675 47.4381 21.4973 49.9974C21.8021 50.9424 22.416 51.3712 23.415 51.3785C24.5233 51.3785 25.6331 51.3785 26.7415 51.3785H28.8414C25.6477 48.1658 22.7485 44.6993 18.9933 42.0539V42.0481ZM23.1102 42.032C22.3096 40.1362 21.506 38.2083 20.6719 36.2935C20.6187 36.2101 20.5474 36.1398 20.4634 36.0878C20.3793 36.0358 20.2846 36.0034 20.1862 35.9931C18.951 35.9333 17.7071 35.9464 16.784 35.1181L14.6081 36.8958L22.0121 42.926L23.1102 42.032ZM25.8169 32.6987C25.8519 32.7147 25.8169 32.687 25.7877 32.687C23.0592 32.687 20.3321 32.671 17.6035 32.687C16.9823 32.687 16.7387 33.2602 17.1077 33.7793C17.6006 34.472 18.3181 34.7331 19.1362 34.7768C21.1536 34.8799 23.1695 34.9834 25.184 35.0874C25.426 35.1006 25.6681 35.0874 25.8169 35.0874V32.6987ZM53.6885 41.4487C52.7362 39.6593 51.3552 38.532 49.5177 37.972C48.5319 37.6804 48.5275 37.6877 47.8946 38.4781C47.5057 38.9642 47.1212 39.4503 46.741 39.9364L45.5481 41.4531L53.6885 41.4487ZM32.2058 43.0937C32.2064 42.4973 31.9742 41.9242 31.5585 41.4966C31.1428 41.0689 30.5766 40.8205 29.9804 40.8041C29.3746 40.7987 28.7914 41.034 28.359 41.4585C27.9267 41.8829 27.6806 42.4616 27.6748 43.0674C27.674 43.3675 27.7324 43.6649 27.8465 43.9424C27.9606 44.2199 28.1283 44.4723 28.34 44.685C28.5516 44.8978 28.8031 45.0668 29.0801 45.1823C29.3571 45.2979 29.6541 45.3577 29.9542 45.3585C30.5504 45.3498 31.1196 45.1083 31.5403 44.6858C31.961 44.2632 32.1998 43.6929 32.2058 43.0966V43.0937ZM45.185 28.8574C45.493 28.8809 45.8024 28.8765 46.1096 28.8443C46.3312 28.802 46.6127 28.681 46.709 28.506C46.7717 28.3922 46.604 28.0685 46.4537 27.9299C45.9273 27.4545 45.3658 27.0199 44.8175 26.5708C43.9425 25.8577 43.0675 25.1474 42.1998 24.4299C41.8965 24.1791 41.5771 23.9924 41.2373 24.322C40.861 24.6881 41.1031 25.0089 41.3685 25.3166C41.7244 25.7293 42.0977 26.1289 42.4142 26.5737C42.7074 26.9867 42.9553 27.4302 43.1535 27.8964C43.4729 28.6649 43.6975 28.8531 44.5317 28.8574C44.7533 28.8618 44.9721 28.8618 45.1894 28.8604L45.185 28.8574ZM20.3437 50.2702C19.7254 48.3277 19.145 46.5004 18.5544 44.6454L17.1208 44.937C17.535 46.4719 17.535 48.0892 17.1208 49.6241L20.3437 50.2702ZM44.9896 42.7189C45.465 44.4849 45.936 46.2554 46.4202 48.0229C46.5237 48.402 46.814 48.5231 47.1873 48.4487C47.67 48.3539 47.8421 48.0243 47.6875 47.4395C47.3667 46.2276 47.0356 45.0187 46.7075 43.8083C46.3794 42.5979 46.3735 42.576 45.08 42.6854C45.0489 42.6936 45.0186 42.7049 44.9896 42.7189ZM30.3435 29.1476C31.8733 30.9837 34.9927 30.4266 35.7671 28.9187C33.95 28.3966 32.1431 28.1735 30.3435 29.1476ZM48.1352 35.3252C48.4575 35.2493 48.8527 35.2668 49.086 35.0801C49.6796 34.612 49.8152 33.7327 49.4448 33.0545C49.3947 32.9686 49.326 32.8951 49.2438 32.8393C49.1615 32.7835 49.0677 32.7469 48.9694 32.7322C47.0823 32.7454 47.511 32.4289 47.1829 34.141C46.9831 35.1676 46.7177 35.2799 48.1323 35.3252H48.1352Z" fill="white"/>
<path d="M23.2546 0C24.586 0.401042 25.916 0.809375 27.2519 1.19875C29.1477 1.75438 31.0523 2.30708 32.9612 2.83354C33.4687 2.97937 33.6554 3.22292 33.651 3.75667C33.6292 6.9825 33.635 10.2083 33.6408 13.4342C33.6496 18.2656 31.64 22.0573 27.6937 24.7844C26.3083 25.7425 24.7946 26.5183 23.3187 27.3438C23.2013 27.4024 23.0727 27.4356 22.9415 27.4411C22.8104 27.4467 22.6795 27.4244 22.5575 27.3758C20.3919 26.2587 18.2321 25.1271 16.4179 23.4529C13.7842 21.0233 12.3462 18.0075 12.2442 14.439C12.1421 10.8704 12.215 7.25958 12.1902 3.66917C12.1902 3.14563 12.4658 2.98083 12.8858 2.85979C15.9221 1.98479 18.9564 1.10396 21.9887 0.217292C22.1958 0.157501 22.3942 0.0714583 22.5969 0H23.2546ZM29.9702 10.1923H29.906C29.906 8.91625 29.8944 7.64167 29.906 6.36562C29.906 6.02146 29.8229 5.86396 29.4685 5.76479C27.405 5.18875 25.3531 4.57333 23.291 3.99C23.0487 3.92582 22.7939 3.92582 22.5517 3.99C20.4721 4.57333 18.4012 5.19167 16.3217 5.77646C16.0169 5.8625 15.9221 5.99083 15.9235 6.3C15.9367 8.86812 15.8958 11.4377 15.9498 14.0058C15.969 16.102 16.716 18.1264 18.0629 19.7327C19.3346 21.264 20.9665 22.3067 22.7033 23.205C22.7825 23.2345 22.867 23.2467 22.9512 23.241C23.0355 23.2352 23.1175 23.2115 23.1919 23.1715C24.0217 22.6844 24.8689 22.2163 25.6506 21.6577C27.8717 20.0652 29.3956 17.9696 29.7339 15.2104C29.9454 13.5508 29.9017 11.865 29.9702 10.1923ZM22.2337 25.8562C22.2862 25.7731 22.3023 25.76 22.3052 25.7425C22.4787 24.796 22.2264 24.204 21.2683 23.7008C16.8175 21.3442 14.5265 17.6721 14.7379 12.5242C14.824 10.4154 14.754 8.295 14.7481 6.18479C14.7481 6.01271 14.7481 5.77208 14.646 5.68021C14.2654 5.3375 13.8396 5.04437 13.3598 4.67833C13.3467 4.89854 13.3379 4.98604 13.3379 5.07354C13.3379 7.91583 13.319 10.761 13.351 13.599C13.3628 14.4548 13.4472 15.308 13.6033 16.1496C14.5264 21.1123 18.0425 23.7708 22.2337 25.8562ZM23.5462 25.989C24.6823 25.2977 25.7833 24.6954 26.8129 23.9896C30.2604 21.6213 32.3094 18.4027 32.4333 14.1487C32.5223 11.1067 32.4669 8.06167 32.4712 5.01813C32.457 4.91865 32.4326 4.82091 32.3983 4.72646C32.1488 4.93783 31.8857 5.13269 31.6108 5.30979C31.1515 5.565 31.0479 5.92958 31.0537 6.43563C31.0815 8.67708 31.0639 10.9185 31.0654 13.16C31.0654 14.91 30.8146 16.606 30.0694 18.2073C28.9027 20.7127 26.9529 22.4642 24.57 23.7023C23.5667 24.2317 23.3129 24.8602 23.5477 25.989H23.5462ZM22.3373 1.35188L14.0583 3.73917C14.5133 4.0775 14.8794 4.375 15.2731 4.62875C15.4248 4.71226 15.6023 4.73568 15.7704 4.69438C17.85 4.11104 19.9257 3.51944 21.9975 2.91958C22.074 2.89209 22.143 2.84722 22.1992 2.78851C22.2554 2.7298 22.2971 2.65885 22.3212 2.58125C22.3492 2.17207 22.3546 1.76165 22.3373 1.35188ZM31.7858 3.73771L23.52 1.35333V2.79125C23.5657 2.82093 23.6146 2.84539 23.6658 2.86417C25.8125 3.48104 27.9592 4.09937 30.1102 4.70458C30.2622 4.74031 30.4222 4.71574 30.5564 4.63604C30.9414 4.375 31.3104 4.08333 31.78 3.73771H31.7858Z" fill="white"/>
<path d="M8.71501 50.8623C8.24982 50.8594 7.78976 50.765 7.36108 50.5843C6.93241 50.4036 6.54352 50.1403 6.21661 49.8093C5.88971 49.4784 5.6312 49.0862 5.45584 48.6554C5.28048 48.2245 5.19171 47.7633 5.19459 47.2981C5.19401 46.8328 5.28511 46.3718 5.46267 45.9417C5.64023 45.5115 5.90077 45.1205 6.22943 44.791C6.55809 44.4616 6.94843 44.2 7.37816 44.0214C7.80789 43.8428 8.26858 43.7506 8.73396 43.75C9.20383 43.7517 9.66875 43.8461 10.1021 44.0278C10.5354 44.2096 10.9286 44.475 11.2591 44.8089C11.5897 45.1429 11.8511 45.5388 12.0284 45.9739C12.2057 46.4091 12.2954 46.8749 12.2923 47.3448C12.2815 48.2847 11.8993 49.1822 11.229 49.8412C10.5588 50.5003 9.65498 50.8674 8.71501 50.8623ZM8.75875 44.9327C8.4439 44.9285 8.13134 44.9868 7.83922 45.1044C7.54711 45.2219 7.28126 45.3963 7.05712 45.6175C6.83298 45.8386 6.65501 46.1021 6.53355 46.3927C6.41209 46.6832 6.34956 46.9949 6.34958 47.3098C6.34958 48.5625 7.39229 49.6606 8.59979 49.6781C10.0042 49.6985 11.1344 48.631 11.1285 47.2923C11.1243 46.666 10.873 46.0668 10.4292 45.6249C9.98536 45.183 9.38503 44.9342 8.75875 44.9327Z" fill="white"/>
<path d="M21.4623 13.1555L24.7552 9.33323C25.1344 8.89573 25.5048 8.44218 25.8971 8.01052C26.5563 7.28135 27.5421 7.20114 28.2304 7.7976C28.9188 8.39406 28.9961 9.38427 28.3471 10.1441C26.5621 12.2353 24.7669 14.3183 22.9615 16.393C22.3023 17.1514 21.4302 17.2389 20.6281 16.6322C19.6122 15.8651 18.6083 15.081 17.6167 14.2799C17.4469 14.1486 17.3047 13.9851 17.1981 13.7988C17.0916 13.6125 17.0228 13.407 16.9957 13.1941C16.9686 12.9812 16.9838 12.765 17.0403 12.558C17.0968 12.3509 17.1935 12.157 17.325 11.9874C17.8865 11.2772 18.8504 11.1576 19.6146 11.7249C20.2344 12.1814 20.8279 12.6626 21.4623 13.1555ZM27.72 8.92635C27.6135 8.79218 27.545 8.62156 27.4371 8.58948C27.2714 8.54049 27.0934 8.55558 26.9383 8.63177C26.7657 8.76468 26.6143 8.92301 26.4892 9.10135C25.0513 10.7716 23.6148 12.4414 22.1798 14.1107C21.7117 14.6532 21.5192 14.6736 20.9519 14.2347C20.3044 13.733 19.6613 13.2255 19.0138 12.7253C18.7629 12.5314 18.4858 12.4191 18.2496 12.7253C18.0133 13.0316 18.2102 13.2678 18.4552 13.4545C19.3988 14.1968 20.351 14.9332 21.2888 15.6784C21.611 15.9336 21.8808 15.8884 22.139 15.5866C23.9026 13.5264 25.6657 11.4658 27.4283 9.40468C27.5382 9.25277 27.6357 9.09233 27.72 8.9249V8.92635Z" fill="white"/>
</svg>
