<svg width="17" height="24" viewBox="0 0 17 24" fill="none" xmlns="http://www.w3.org/2000/svg">
<path d="M8.26367 18.6C8.41836 18.8391 8.69023 18.9984 8.99961 18.9984C9.30898 18.9984 9.58086 18.8391 9.74023 18.6L14.9059 10.6219C15.5996 9.54844 16.0027 8.36719 16.0027 6.99844C15.998 3.04219 12.8902 0 8.99961 0C5.10898 0 2.00117 3.04219 2.00117 6.99844C2.00117 8.36719 2.4043 9.54844 3.09805 10.6219L8.26367 18.6ZM8.99961 3C11.2074 3 12.998 4.79063 12.998 6.99844C12.998 9.20625 11.2074 10.9969 8.99961 10.9969C6.7918 10.9969 5.00117 9.20625 5.00117 6.99844C5.00117 4.79063 6.7918 3 8.99961 3ZM14.1277 15.1641L8.99961 21.9984L3.87148 15.1641C2.11836 16.0828 0.998047 17.4562 0.998047 18.9984C0.998047 21.7594 4.5793 24 8.99961 24C13.4199 24 17.0012 21.7594 17.0012 18.9984C17.0012 17.4562 15.8809 16.0828 14.1277 15.1641Z" fill="#262626"/>
</svg>
