<svg width="24" height="24" viewBox="0 0 24 24" fill="none" xmlns="http://www.w3.org/2000/svg">
<path d="M17.1429 24C16.2 24 15.3931 23.6646 14.7223 22.9937C14.0503 22.3217 13.7143 21.5143 13.7143 20.5714V3.42857C13.7143 2.48571 14.0503 1.67886 14.7223 1.008C15.3931 0.336 16.2 0 17.1429 0H20.5714C21.5143 0 22.3217 0.336 22.9937 1.008C23.6646 1.67886 24 2.48571 24 3.42857V20.5714C24 21.5143 23.6646 22.3217 22.9937 22.9937C22.3217 23.6646 21.5143 24 20.5714 24H17.1429ZM3.42857 24C2.48571 24 1.67886 23.6646 1.008 22.9937C0.336 22.3217 0 21.5143 0 20.5714V3.42857C0 2.48571 0.336 1.67886 1.008 1.008C1.67886 0.336 2.48571 0 3.42857 0H6.85714C7.8 0 8.60743 0.336 9.27943 1.008C9.95029 1.67886 10.2857 2.48571 10.2857 3.42857V20.5714C10.2857 21.5143 9.95029 22.3217 9.27943 22.9937C8.60743 23.6646 7.8 24 6.85714 24H3.42857Z" fill="#0071C2"/>
</svg>
