<svg width="36" height="24" viewBox="0 0 36 24" fill="none" xmlns="http://www.w3.org/2000/svg">
<g clip-path="url(#clip0_877_7092)">
<path d="M32 0.5H4C2.067 0.5 0.5 2.067 0.5 4V20C0.5 21.933 2.067 23.5 4 23.5H32C33.933 23.5 35.5 21.933 35.5 20V4C35.5 2.067 33.933 0.5 32 0.5Z" fill="white" stroke="#DFE0E2"/>
<path d="M21.8745 9.01172H19.9285C19.8642 9.01408 19.8026 9.03807 19.7536 9.07981C19.7046 9.12155 19.6711 9.17859 19.6585 9.24172L18.8785 14.2347C18.8753 14.2585 18.8771 14.2827 18.8839 14.3058C18.8907 14.3288 18.9024 14.3501 18.9181 14.3683C18.9338 14.3864 18.9532 14.401 18.975 14.4111C18.9968 14.4212 19.0205 14.4265 19.0445 14.4267H20.0435C20.1335 14.4267 20.2095 14.3627 20.2355 14.2727L20.4525 12.8647C20.4631 12.8007 20.4961 12.7425 20.5455 12.7004C20.5949 12.6583 20.6576 12.635 20.7225 12.6347H21.3365C22.6165 12.6347 23.3595 12.0197 23.5515 10.7907C23.6415 10.2537 23.5515 9.83072 23.3075 9.53672C23.0135 9.17772 22.5275 9.01172 21.8745 9.01172ZM22.0915 10.8297C21.9895 11.5337 21.4515 11.5337 20.9395 11.5337H20.6445L20.8495 10.2277C20.856 10.1883 20.8764 10.1524 20.907 10.1267C20.9377 10.101 20.9765 10.0872 21.0165 10.0877H21.1565C21.5025 10.0877 21.8365 10.0877 22.0145 10.2917C22.1045 10.4067 22.1305 10.5857 22.0915 10.8297Z" fill="#009CDE"/>
<path d="M7.99657 9.01562H6.05057C5.98643 9.01821 5.92502 9.0423 5.87622 9.08402C5.82743 9.12574 5.79409 9.18266 5.78157 9.24562L5.00157 14.2386C4.9983 14.2624 5.00014 14.2866 5.00697 14.3097C5.01379 14.3327 5.02545 14.354 5.04116 14.3722C5.05686 14.3903 5.07626 14.4049 5.09806 14.415C5.11986 14.4251 5.14356 14.4304 5.16757 14.4306H6.10157C6.16589 14.4283 6.22754 14.4043 6.27653 14.3625C6.32553 14.3208 6.35901 14.2638 6.37157 14.2006L6.58857 12.8556C6.59917 12.7918 6.63195 12.7337 6.68116 12.6916C6.73036 12.6495 6.79283 12.6262 6.85757 12.6256H7.47157C8.75157 12.6256 9.49457 12.0106 9.68657 10.7816C9.77657 10.2446 9.68657 9.82163 9.44357 9.52763C9.13557 9.18163 8.64957 9.01562 7.99657 9.01562ZM8.21457 10.8326C8.11157 11.5376 7.57457 11.5376 7.06257 11.5376H6.76757L6.97257 10.2316C6.97879 10.1921 6.99897 10.1562 7.02942 10.1303C7.05988 10.1045 7.09861 10.0904 7.13857 10.0906H7.27957C7.62557 10.0906 7.95857 10.0906 8.13757 10.2956C8.22757 10.4106 8.25257 10.5896 8.21457 10.8326ZM13.8096 10.8056H12.8746C12.835 10.807 12.797 10.8217 12.7667 10.8473C12.7364 10.8728 12.7156 10.9078 12.7076 10.9466L12.6696 11.2026L12.6056 11.1126C12.4006 10.8186 11.9526 10.7166 11.5046 10.7166C10.4806 10.7166 9.59657 11.4966 9.43057 12.5856C9.34057 13.1356 9.46857 13.6486 9.77657 14.0196C10.0576 14.3526 10.4666 14.4926 10.9536 14.4926C11.7856 14.4926 12.2466 13.9556 12.2466 13.9556L12.2086 14.2116C12.2053 14.2354 12.2071 14.2596 12.214 14.2827C12.2208 14.3057 12.2324 14.327 12.2482 14.3452C12.2639 14.3633 12.2833 14.3779 12.3051 14.388C12.3269 14.3981 12.3506 14.4034 12.3746 14.4036H13.2196C13.2839 14.4013 13.3455 14.3773 13.3945 14.3355C13.4435 14.2938 13.477 14.2368 13.4896 14.1736L13.9876 10.9856C13.9876 10.8956 13.9116 10.8056 13.8086 10.8056H13.8096ZM12.5156 12.6236C12.4256 13.1616 12.0036 13.5076 11.4656 13.5076C11.1976 13.5076 10.9796 13.4176 10.8386 13.2516C10.6986 13.0846 10.6466 12.8546 10.6986 12.5986C10.7358 12.3478 10.8625 12.1189 11.0553 11.9542C11.2481 11.7895 11.494 11.7001 11.7476 11.7026C12.0166 11.7026 12.2216 11.7926 12.3746 11.9586C12.4906 12.1246 12.5546 12.3686 12.5156 12.6236Z" fill="#003087"/>
<path d="M27.6875 10.8038H26.7535C26.7139 10.8053 26.6759 10.8199 26.6456 10.8455C26.6153 10.8711 26.5945 10.906 26.5865 10.9448L26.5485 11.2008L26.4845 11.1108C26.2795 10.8168 25.8315 10.7148 25.3835 10.7148C24.3595 10.7148 23.4755 11.4948 23.3095 12.5838C23.2195 13.1338 23.3475 13.6468 23.6545 14.0178C23.9365 14.3508 24.3465 14.4908 24.8325 14.4908C25.6645 14.4908 26.1255 13.9538 26.1255 13.9538L26.0875 14.2098C26.0842 14.2336 26.086 14.2579 26.0929 14.2809C26.0997 14.3039 26.1113 14.3252 26.1271 14.3434C26.1428 14.3615 26.1622 14.3762 26.184 14.3862C26.2058 14.3963 26.2295 14.4016 26.2535 14.4018H27.0985C27.1626 14.3993 27.224 14.3752 27.2728 14.3335C27.3216 14.2917 27.355 14.2348 27.3675 14.1718L27.8675 10.9838C27.8675 10.8938 27.7895 10.8038 27.6875 10.8038ZM26.3815 12.6218C26.2915 13.1598 25.8695 13.5058 25.3315 13.5058C25.0635 13.5058 24.8455 13.4158 24.7045 13.2498C24.5645 13.0828 24.5125 12.8528 24.5645 12.5968C24.6017 12.3458 24.7285 12.1168 24.9215 11.9521C25.1146 11.7873 25.3607 11.6981 25.6145 11.7008C25.8825 11.7008 26.0875 11.7908 26.2405 11.9568C26.3096 12.0515 26.3579 12.1596 26.3822 12.2742C26.4065 12.3889 26.4062 12.5073 26.3815 12.6218Z" fill="#009CDE"/>
<path d="M18.776 10.8047H17.842C17.752 10.8047 17.662 10.8427 17.624 10.9197L16.331 12.8267L15.781 10.9967C15.7639 10.9417 15.7298 10.8934 15.6836 10.859C15.6375 10.8245 15.5816 10.8055 15.524 10.8047H14.59C14.5639 10.8047 14.5382 10.8109 14.515 10.8228C14.4919 10.8348 14.4719 10.8521 14.4568 10.8734C14.4417 10.8946 14.432 10.9192 14.4283 10.945C14.4247 10.9708 14.4273 10.9971 14.436 11.0217L15.473 14.0437L14.5 15.4137C14.424 15.5157 14.5 15.6687 14.628 15.6687H15.563C15.653 15.6687 15.729 15.6307 15.781 15.5537L18.891 11.0607C18.9106 11.0385 18.9234 11.0111 18.9278 10.9818C18.9323 10.9525 18.9282 10.9226 18.9161 10.8956C18.9039 10.8686 18.8843 10.8456 18.8594 10.8295C18.8346 10.8134 18.8056 10.8048 18.776 10.8047Z" fill="#003087"/>
<path d="M28.7868 9.14L27.9938 14.223C27.9905 14.2468 27.9923 14.271 27.9992 14.294C28.006 14.3171 28.0176 14.3384 28.0333 14.3565C28.0491 14.3747 28.0685 14.3893 28.0902 14.3994C28.112 14.4095 28.1357 14.4148 28.1598 14.415H28.9668C29.0307 14.4122 29.0919 14.388 29.1405 14.3463C29.1891 14.3046 29.2223 14.2478 29.2348 14.185L30.0158 9.192C30.019 9.16821 30.0172 9.14399 30.0104 9.12096C30.0035 9.09794 29.9919 9.07663 29.9762 9.05846C29.9605 9.0403 29.9411 9.02568 29.9193 9.0156C29.8975 9.00552 29.8738 9.0002 29.8498 9H28.9538C28.8638 9.013 28.7998 9.064 28.7868 9.14Z" fill="#009CDE"/>
</g>
<defs>
<clipPath id="clip0_877_7092">
<rect width="36" height="24" fill="white"/>
</clipPath>
</defs>
</svg>
