<svg width="56" height="56" viewBox="0 0 56 56" fill="none" xmlns="http://www.w3.org/2000/svg">
<path d="M10.0625 30.625C11.7066 30.625 13.3137 31.1125 14.6807 32.0259C16.0477 32.9393 17.1131 34.2375 17.7423 35.7564C18.3714 37.2754 18.536 38.9467 18.2153 40.5592C17.8945 42.1717 17.1029 43.6528 15.9403 44.8153C14.7778 45.9778 13.2967 46.7695 11.6842 47.0903C10.0717 47.411 8.40036 47.2464 6.88145 46.6172C5.36254 45.9881 4.0643 44.9227 3.15091 43.5557C2.23752 42.1887 1.75 40.5816 1.75 38.9375C1.75 36.7329 2.62578 34.6186 4.18468 33.0597C5.74358 31.5008 7.85789 30.625 10.0625 30.625ZM10.0625 28.875C8.07233 28.875 6.12685 29.4652 4.47208 30.5708C2.81731 31.6765 1.52757 33.2481 0.765967 35.0867C0.00435998 36.9254 -0.194911 38.9487 0.193353 40.9006C0.581616 42.8525 1.53998 44.6455 2.94724 46.0528C4.35451 47.46 6.14747 48.4184 8.09941 48.8067C10.0513 49.1949 12.0746 48.9956 13.9133 48.234C15.7519 47.4724 17.3235 46.1827 18.4292 44.5279C19.5349 42.8732 20.125 40.9277 20.125 38.9375C20.125 36.2688 19.0649 33.7093 17.1778 31.8222C15.2907 29.9352 12.7312 28.875 10.0625 28.875Z" fill="white"/>
<path d="M45.9375 30.625C47.5816 30.625 49.1887 31.1125 50.5557 32.0259C51.9227 32.9393 52.9881 34.2375 53.6173 35.7564C54.2464 37.2754 54.411 38.9467 54.0903 40.5592C53.7695 42.1717 52.9779 43.6528 51.8153 44.8153C50.6528 45.9778 49.1717 46.7695 47.5592 47.0903C45.9467 47.411 44.2754 47.2464 42.7564 46.6172C41.2375 45.9881 39.9393 44.9227 39.0259 43.5557C38.1125 42.1887 37.625 40.5816 37.625 38.9375C37.625 36.7329 38.5008 34.6186 40.0597 33.0597C41.6186 31.5008 43.7329 30.625 45.9375 30.625ZM45.9375 28.875C43.9473 28.875 42.0018 29.4652 40.3471 30.5708C38.6923 31.6765 37.4026 33.2481 36.641 35.0867C35.8794 36.9254 35.6801 38.9487 36.0684 40.9006C36.4566 42.8525 37.415 44.6455 38.8222 46.0528C40.2295 47.46 42.0225 48.4184 43.9744 48.8067C45.9263 49.1949 47.9496 48.9956 49.7883 48.234C51.6269 47.4724 53.1985 46.1827 54.3042 44.5279C55.4098 42.8732 56 40.9277 56 38.9375C56 36.2688 54.9399 33.7093 53.0528 31.8222C51.1657 29.9352 48.6062 28.875 45.9375 28.875Z" fill="white"/>
<path d="M24.9375 37.625C25.1971 37.625 25.4508 37.702 25.6667 37.8462C25.8825 37.9904 26.0508 38.1954 26.1501 38.4352C26.2494 38.6751 26.2754 38.939 26.2248 39.1936C26.1741 39.4482 26.0491 39.682 25.8656 39.8656C25.682 40.0491 25.4482 40.1741 25.1936 40.2248C24.939 40.2754 24.6751 40.2494 24.4352 40.1501C24.1954 40.0508 23.9904 39.8825 23.8462 39.6667C23.702 39.4508 23.625 39.1971 23.625 38.9375C23.625 38.5894 23.7633 38.2556 24.0094 38.0094C24.2556 37.7633 24.5894 37.625 24.9375 37.625ZM24.9375 35.875C24.3318 35.875 23.7397 36.0546 23.2361 36.3911C22.7324 36.7276 22.3399 37.2059 22.1081 37.7655C21.8763 38.3251 21.8157 38.9409 21.9338 39.535C22.052 40.129 22.3437 40.6747 22.772 41.103C23.2003 41.5313 23.746 41.823 24.34 41.9412C24.9341 42.0593 25.5499 41.9987 26.1095 41.7669C26.6691 41.5351 27.1474 41.1426 27.4839 40.6389C27.8204 40.1353 28 39.5432 28 38.9375C28 38.1253 27.6773 37.3463 27.103 36.772C26.5287 36.1977 25.7497 35.875 24.9375 35.875Z" fill="white"/>
<path d="M41.5642 25.8125C21.6317 25.8125 12.6892 35.5119 10.5717 38.2331C10.5206 38.2993 10.4895 38.3787 10.4822 38.4619C10.4748 38.5452 10.4914 38.6288 10.5301 38.7029C10.5687 38.777 10.6278 38.8385 10.7003 38.88C10.7728 38.9216 10.8557 38.9416 10.9392 38.9375H22.7517" stroke="white" stroke-width="2" stroke-miterlimit="10" stroke-linecap="round"/>
<path d="M24.9375 36.75L17.0625 12.25" stroke="white" stroke-width="2" stroke-miterlimit="10" stroke-linecap="round"/>
<path d="M45.9375 38.9375C40.3463 28.5556 39.4931 10.5 39.375 7.4375C39.375 7.32147 39.4211 7.21019 39.5031 7.12814C39.5852 7.04609 39.6965 7 39.8125 7H42.875" stroke="white" stroke-width="2" stroke-miterlimit="10" stroke-linecap="round"/>
<path d="M14 11.8125H21.875" stroke="white" stroke-width="2" stroke-miterlimit="10" stroke-linecap="round"/>
</svg>
