<svg width="56" height="56" viewBox="0 0 56 56" fill="none" xmlns="http://www.w3.org/2000/svg">
<path d="M24.125 52.1297L12.3557 40.3604C11.4807 39.4877 11 38.3047 11 37.0797C11 35.8104 11.525 34.6297 12.3557 33.799C13.1863 32.9684 14.367 32.4434 15.6363 32.4434C16.8613 32.4434 18.042 32.924 18.917 33.799L21.9363 36.8184V15.1884C21.9363 12.876 23.621 10.7807 25.924 10.5847C27.2773 10.4704 28.5233 10.9627 29.396 11.8587C30.2057 12.6474 30.6863 13.7394 30.6863 14.9434V28.0684L42.2433 29.7204C44.3993 30.0284 46 31.874 46 34.051C46 40.1877 44.572 46.238 41.828 51.726L41.625 52.1297" stroke="white" stroke-width="1.875" stroke-miterlimit="10"/>
<path d="M30.6894 24.9627C31.9144 24.4587 33.0508 23.6933 34.0588 22.6877C38.3241 18.399 38.3241 11.4877 34.0588 7.199C29.7701 2.93367 22.8588 2.93367 18.5701 7.199C14.3048 11.4877 14.3048 18.399 18.5701 22.6877C19.5758 23.6933 20.7144 24.4587 21.9394 24.9627" stroke="white" stroke-width="1.875" stroke-miterlimit="10"/>
</svg>
