<svg width="12" height="12" viewBox="0 0 12 12" fill="none" xmlns="http://www.w3.org/2000/svg">
<path d="M2.6665 12C2.29984 12 1.98606 11.8696 1.72517 11.6087C1.46384 11.3473 1.33317 11.0333 1.33317 10.6667V2C1.14428 2 0.985837 1.93622 0.857837 1.80867C0.730282 1.68067 0.666504 1.52222 0.666504 1.33333C0.666504 1.14444 0.730282 0.986 0.857837 0.858C0.985837 0.730445 1.14428 0.666667 1.33317 0.666667H3.99984C3.99984 0.477778 4.06384 0.319333 4.19184 0.191333C4.31939 0.0637777 4.47762 0 4.6665 0H7.33317C7.52206 0 7.6805 0.0637777 7.8085 0.191333C7.93606 0.319333 7.99984 0.477778 7.99984 0.666667H10.6665C10.8554 0.666667 11.0136 0.730445 11.1412 0.858C11.2692 0.986 11.3332 1.14444 11.3332 1.33333C11.3332 1.52222 11.2692 1.68067 11.1412 1.80867C11.0136 1.93622 10.8554 2 10.6665 2V10.6667C10.6665 11.0333 10.5361 11.3473 10.2752 11.6087C10.0138 11.8696 9.69984 12 9.33317 12H2.6665ZM3.99984 8.66667C3.99984 8.85556 4.06384 9.01378 4.19184 9.14133C4.31939 9.26933 4.47762 9.33333 4.6665 9.33333C4.85539 9.33333 5.01384 9.26933 5.14184 9.14133C5.26939 9.01378 5.33317 8.85556 5.33317 8.66667V4C5.33317 3.81111 5.26939 3.65267 5.14184 3.52467C5.01384 3.39711 4.85539 3.33333 4.6665 3.33333C4.47762 3.33333 4.31939 3.39711 4.19184 3.52467C4.06384 3.65267 3.99984 3.81111 3.99984 4V8.66667ZM6.6665 8.66667C6.6665 8.85556 6.7305 9.01378 6.8585 9.14133C6.98606 9.26933 7.14428 9.33333 7.33317 9.33333C7.52206 9.33333 7.6805 9.26933 7.8085 9.14133C7.93606 9.01378 7.99984 8.85556 7.99984 8.66667V4C7.99984 3.81111 7.93606 3.65267 7.8085 3.52467C7.6805 3.39711 7.52206 3.33333 7.33317 3.33333C7.14428 3.33333 6.98606 3.39711 6.8585 3.52467C6.7305 3.65267 6.6665 3.81111 6.6665 4V8.66667Z" fill="#7F7F7F"/>
</svg>
